<svg width="267" height="40" viewBox="0 0 267 40" fill="none" xmlns="http://www.w3.org/2000/svg">
<path d="M13.8721 25.7016C13.8721 24.7694 14.0266 23.5709 14.3356 22.106C14.6446 20.6412 15.0529 19.0764 15.5606 17.4118C14.1038 17.5228 12.6361 17.6671 11.1573 17.8446C9.70052 18.0222 8.4314 18.122 7.34988 18.1442C6.35666 20.4747 5.56207 22.6276 4.96614 24.6029C4.39227 26.5561 3.9398 28.4648 3.60873 30.3292C2.77 30.1294 2.07474 29.7743 1.52295 29.2638C0.971156 28.7755 0.463506 28.1541 0 27.3995C0.176574 27.0443 0.375219 26.5894 0.595936 26.0345C0.838725 25.4796 1.11462 24.8138 1.42363 24.037C1.7547 23.2379 2.11889 22.3169 2.51618 21.2737C2.93554 20.2084 3.41008 18.9765 3.9398 17.5783C3.21144 17.2675 2.72586 16.8347 2.48307 16.2799C2.59343 16.1911 2.83622 16.1023 3.21144 16.0135C3.60873 15.9026 4.09431 15.7916 4.66817 15.6806L5.09857 14.6153C5.56207 13.4167 5.93729 12.4069 6.22423 11.5857C6.53323 10.7645 6.78706 9.96546 6.9857 9.18864C7.20642 8.38963 7.40506 7.51294 7.58164 6.55856C7.78028 5.60418 8.01204 4.39457 8.2769 2.92971C9.20391 3.10727 10.0426 3.51787 10.7931 4.16152C11.5656 4.80517 12.2277 5.58199 12.7795 6.49198C12.5809 6.75831 12.3381 7.15782 12.0512 7.69049C11.7642 8.22317 11.4442 8.86682 11.091 9.62144C10.76 10.3539 10.3958 11.1862 9.99849 12.1184C9.6012 13.0283 9.1708 13.9938 8.7073 15.0148C10.0757 14.8372 11.4552 14.6708 12.8457 14.5154C14.2583 14.36 15.5054 14.2491 16.5869 14.1825C16.9842 13.0283 17.3925 11.9075 17.8119 10.82C18.2533 9.71022 18.6837 8.70036 19.1031 7.79037C19.5224 6.88039 19.9197 6.08137 20.295 5.39333C20.6922 4.7053 21.0454 4.19481 21.3544 3.86189C21.5751 3.88409 21.862 3.97287 22.2152 4.12823C22.5904 4.2614 22.9656 4.42786 23.3408 4.62761C23.7161 4.82737 24.0582 5.04931 24.3672 5.29346C24.6762 5.51541 24.8859 5.72626 24.9962 5.92601C24.5989 6.30332 24.2016 6.7916 23.8044 7.39086C23.4071 7.99012 23.0098 8.67816 22.6125 9.45498C22.2373 10.2318 21.862 11.0752 21.4868 11.9852C21.1116 12.8952 20.7585 13.8385 20.4274 14.815C20.8688 15.2145 21.0895 15.7139 21.0895 16.3132C21.0895 16.7349 21.0012 17.1233 20.8247 17.4784C20.626 17.434 20.4274 17.4118 20.2287 17.4118C20.0301 17.3896 19.8204 17.3674 19.5997 17.3452C19.2245 18.5437 18.8824 19.7312 18.5734 20.9075C18.2644 22.0838 17.9995 23.2047 17.7788 24.27C17.5801 25.3354 17.4146 26.3119 17.2822 27.1997C17.1718 28.0875 17.1166 28.831 17.1166 29.4303C17.1166 29.6522 17.1166 29.8298 17.1166 29.963C17.1387 30.0961 17.1608 30.2071 17.1828 30.2959C16.6973 30.2737 16.3441 30.1849 16.1234 30.0296C15.9027 29.8964 15.7371 29.741 15.6268 29.5635C15.5164 29.4081 15.4171 29.2416 15.3288 29.0641C15.2405 28.9087 15.0971 28.7866 14.8984 28.6979C14.7439 28.6313 14.6004 28.4759 14.468 28.2318C14.3356 27.9876 14.2252 27.7102 14.1369 27.3995C14.0487 27.0887 13.9824 26.778 13.9383 26.4673C13.8942 26.1566 13.8721 25.9013 13.8721 25.7016Z" fill="#6E9277"/>
<path d="M33.8797 14.1825C34.1004 14.1825 34.3542 14.2269 34.6411 14.3156C34.9501 14.3822 35.226 14.4821 35.4688 14.6153C35.7116 14.7262 35.9103 14.8483 36.0648 14.9815C36.2413 15.1147 36.3296 15.2367 36.3296 15.3477C35.8882 16.2799 35.4799 17.2232 35.1046 18.1775C34.7294 19.1097 34.4094 20.0086 34.1445 20.8742C33.8797 21.7398 33.67 22.5499 33.5155 23.3045C33.3831 24.0592 33.3168 24.7139 33.3168 25.2688C33.3168 25.8902 33.3831 26.4118 33.5155 26.8335C33.6479 27.233 33.8686 27.5215 34.1776 27.6991C33.9128 27.8767 33.5707 28.0209 33.1513 28.1319C32.7319 28.2429 32.3567 28.2984 32.0256 28.2984C30.8338 28.2984 30.2378 27.4771 30.2378 25.8347C30.2378 24.5696 30.6572 22.8384 31.4959 20.6412C31.0545 21.6621 30.5468 22.6276 29.973 23.5376C29.3991 24.4254 28.8142 25.2133 28.2183 25.9013C27.6223 26.5894 27.0154 27.1553 26.3974 27.5992C25.8014 28.0209 25.2496 28.2762 24.742 28.3649C23.9253 28.3206 23.2632 27.9321 22.7555 27.1997C22.2479 26.4451 21.994 25.4907 21.994 24.3366C21.994 23.0937 22.2589 21.7842 22.7886 20.4081C23.3183 19.032 23.9915 17.7558 24.8082 16.5795C25.6469 15.4032 26.5519 14.4266 27.523 13.6498C28.4942 12.8508 29.4322 12.4291 30.3372 12.3847C30.5579 12.4513 30.8007 12.5844 31.0655 12.7842C31.3525 12.984 31.6173 13.217 31.8601 13.4833C32.125 13.7497 32.3457 14.0271 32.5223 14.3156C32.6988 14.582 32.7982 14.815 32.8202 15.0148C31.9374 15.1479 31.0214 15.5807 30.0723 16.3132C29.1453 17.0456 28.2955 17.9334 27.523 18.9765C26.7726 19.9975 26.1546 21.0961 25.669 22.2725C25.1834 23.4488 24.9406 24.5474 24.9406 25.5684C24.9406 25.9901 25.0951 26.2564 25.4041 26.3674C26.0442 26.2342 26.7836 25.6905 27.6223 24.7361C28.4611 23.7595 29.4764 22.2614 30.6682 20.2416C30.8889 19.8421 31.1317 19.3982 31.3966 18.91C31.6835 18.4217 31.9705 17.9112 32.2574 17.3785C32.5443 16.8458 32.8202 16.3132 33.0851 15.7805C33.372 15.2256 33.6369 14.693 33.8797 14.1825Z" fill="#6E9277"/>
<path d="M37.976 25.5018C37.976 24.5252 38.2077 23.1603 38.6712 21.4069C39.1347 19.6313 39.7858 17.5672 40.6246 15.2145C41.993 11.4636 43.2732 8.34524 44.465 5.85942C45.679 3.35141 46.8598 1.39827 48.0076 0C48.2724 0.044389 48.5925 0.155363 48.9677 0.332922C49.365 0.51048 49.7512 0.710233 50.1264 0.932181C50.5017 1.13193 50.8327 1.34278 51.1197 1.56473C51.4287 1.78668 51.6273 1.96424 51.7156 2.09741C49.994 4.13933 48.4821 6.33661 47.1799 8.68926C45.8776 11.0419 44.6858 13.7386 43.6042 16.7793C42.6772 19.3982 41.9709 21.762 41.4854 23.8705C40.9998 25.9568 40.757 27.6991 40.757 29.0974C40.757 29.4747 40.757 29.7077 40.757 29.7965C40.757 29.8853 40.768 29.9741 40.7901 30.0628C40.4811 30.0185 40.2162 29.9408 39.9955 29.8298C39.7748 29.7188 39.6313 29.5857 39.5651 29.4303C39.521 29.3193 39.3996 29.1529 39.2009 28.9309C39.0023 28.7312 38.8257 28.5758 38.6712 28.4648C38.4726 28.3316 38.307 27.9876 38.1746 27.4328C38.0422 26.8557 37.976 26.212 37.976 25.5018Z" fill="#6E9277"/>
<path d="M57.2554 14.3822C57.2334 14.8039 57.1561 15.2478 57.0237 15.7139C56.9133 16.1578 56.7699 16.5684 56.5933 16.9457C56.4167 17.3008 56.2291 17.6005 56.0305 17.8446C55.8318 18.0888 55.6442 18.2108 55.4676 18.2108C55.2248 18.1886 55.0814 18.0222 55.0372 17.7114C55.0372 17.6449 55.0593 17.545 55.1034 17.4118C55.1697 17.2564 55.2359 17.09 55.3021 16.9124C55.3683 16.7349 55.4235 16.5573 55.4676 16.3798C55.5338 16.2022 55.5669 16.0468 55.5669 15.9137C55.5669 15.6029 55.4897 15.3477 55.3352 15.1479C55.2028 14.926 55.0151 14.815 54.7724 14.815C53.8895 14.815 53.2163 15.3699 52.7528 16.4796C52.2893 17.5894 52.0575 19.2207 52.0575 21.3736C52.0575 21.5955 52.0686 21.7287 52.0906 21.7731C52.5542 21.7509 52.9625 21.7398 53.3156 21.7398C53.6908 21.7176 54.055 21.7065 54.4082 21.7065C54.4303 21.7509 54.4413 21.8397 54.4413 21.9728C54.4413 22.1726 54.3971 22.3169 54.3089 22.4056C53.8012 22.5166 53.3929 22.6165 53.0839 22.7053C52.7969 22.7719 52.5762 22.8384 52.4217 22.905C52.2672 22.9716 52.1679 23.0493 52.1238 23.1381C52.1017 23.2047 52.0906 23.3045 52.0906 23.4377C52.0906 23.6153 52.0906 23.7928 52.0906 23.9704C52.1127 24.1479 52.1238 24.3699 52.1238 24.6362C52.1238 26.5006 51.6161 27.9987 50.6008 29.1307C49.6076 30.2626 48.2171 30.9173 46.4293 31.0949C46.1202 31.0727 45.8002 30.9839 45.4691 30.8286C45.1381 30.6732 44.818 30.4734 44.509 30.2293C44.2221 29.9852 43.9683 29.7077 43.7475 29.397C43.5268 29.1085 43.3723 28.8088 43.284 28.4981C43.284 27.6547 43.4606 26.8557 43.8138 26.1011C44.1669 25.3243 44.6414 24.6473 45.2374 24.0702C45.8554 23.471 46.5727 22.9938 47.3894 22.6387C48.2281 22.2614 49.133 22.0394 50.1042 21.9728C50.1042 21.418 50.049 20.8742 49.9387 20.3415C49.8283 19.8089 49.7069 19.2984 49.5745 18.8101C49.4641 18.2996 49.3538 17.8113 49.2434 17.3452C49.133 16.8569 49.0779 16.3798 49.0779 15.9137C49.0779 15.3144 49.1993 14.7262 49.442 14.1492C49.6848 13.5499 50.0049 13.0061 50.4022 12.5179C50.7994 12.0074 51.263 11.5746 51.7927 11.2195C52.3224 10.8644 52.8742 10.6202 53.4481 10.487C53.6908 10.5536 54.0109 10.7534 54.4082 11.0863C54.8275 11.397 55.2359 11.7521 55.6332 12.1516C56.0305 12.5512 56.3836 12.9618 56.6926 13.3835C57.0016 13.783 57.1892 14.1159 57.2554 14.3822ZM46.3299 29.5635C46.8596 29.3415 47.3563 29.0197 47.8198 28.598C48.3053 28.1763 48.7247 27.6991 49.0779 27.1664C49.431 26.6337 49.7069 26.0678 49.9055 25.4685C50.1263 24.8693 50.2366 24.2811 50.2366 23.704C49.7952 23.7706 49.3096 23.9815 48.7799 24.3366C48.2502 24.6695 47.7536 25.0801 47.29 25.5684C46.8265 26.0345 46.4403 26.5228 46.1313 27.0333C45.8223 27.5437 45.6678 27.9876 45.6678 28.3649C45.6678 28.8532 45.8885 29.2527 46.3299 29.5635Z" fill="#6E9277"/>
<path d="M69.1312 13.8495C69.0429 15.2256 68.8002 16.413 68.4029 17.4118C68.0056 18.3884 67.4317 19.254 66.6813 20.0086C65.9529 20.741 65.059 21.4069 63.9995 22.0061C62.9401 22.6054 61.7041 23.1825 60.2915 23.7373C60.2915 23.8705 60.2805 24.0148 60.2584 24.1701C60.2584 24.3033 60.2584 24.4476 60.2584 24.6029C60.2584 24.8915 60.2805 25.1911 60.3246 25.5018C60.3688 25.8125 60.446 26.1011 60.5564 26.3674C60.6667 26.6337 60.8212 26.8557 61.0199 27.0333C61.2185 27.1886 61.4723 27.2663 61.7813 27.2663C62.3773 27.2663 62.9622 27.1331 63.536 26.8668C64.1099 26.6005 64.6507 26.2786 65.1583 25.9013C65.688 25.5018 66.1736 25.0801 66.6151 24.6362C67.0786 24.1701 67.4869 23.7484 67.84 23.3711C68.0607 23.5709 68.2484 23.7595 68.4029 23.9371C67.4096 25.2688 66.3171 26.3785 65.1252 27.2663C63.9554 28.1319 62.8408 28.6868 61.7813 28.9309C60.2584 28.7533 59.0665 28.1985 58.2057 27.2663C57.367 26.3119 56.9476 25.1689 56.9476 23.8372C56.9476 22.9272 57.069 22.0061 57.3118 21.074C57.5767 20.1196 57.9298 19.2096 58.3713 18.344C58.8348 17.4562 59.3645 16.6239 59.9604 15.8471C60.5784 15.0703 61.2295 14.3933 61.9138 13.8163C62.6201 13.2392 63.3374 12.7842 64.0658 12.4513C64.8162 12.1184 65.5556 11.9519 66.284 11.9519C67.2993 12.0851 68.2484 12.7176 69.1312 13.8495ZM66.8468 14.9482C66.2509 15.037 65.6329 15.2811 64.9928 15.6806C64.3527 16.0801 63.7457 16.6128 63.1719 17.2786C62.6201 17.9445 62.1124 18.7213 61.6489 19.6091C61.1854 20.4969 60.8212 21.4513 60.5564 22.4722C62.3221 21.5844 63.7899 20.4969 64.9597 19.2096C66.1295 17.9001 66.7585 16.4796 66.8468 14.9482Z" fill="#6E9277"/>
<path d="M83.1125 22.4722C82.6048 24.0924 82.0972 25.5684 81.5895 26.9001C81.0819 28.2318 80.5411 29.4525 79.9672 30.5622C79.3934 31.6942 78.7754 32.7262 78.1132 33.6584C77.4511 34.6128 76.7227 35.5117 75.9281 36.3551C74.9128 37.4204 73.8644 38.2305 72.7829 38.7854C71.7014 39.3625 70.6199 39.651 69.5383 39.651C68.9865 39.651 68.4348 39.5844 67.883 39.4512C67.3532 39.3403 66.8566 39.1738 66.3931 38.9519C65.9075 38.7521 65.4882 38.508 65.135 38.2194C64.7598 37.9531 64.495 37.6646 64.3405 37.3538C64.3405 37.0875 64.495 36.8545 64.804 36.6547C65.0688 36.8988 65.2895 37.0875 65.4661 37.2207C65.6427 37.3538 65.8193 37.4648 65.9958 37.5536C66.1503 37.6424 66.3269 37.6978 66.5256 37.72C66.7021 37.7422 66.9118 37.7533 67.1546 37.7533C68.4127 37.7533 69.6377 37.376 70.8295 36.6214C72.0435 35.889 73.1802 34.8347 74.2396 33.4586C75.3211 32.1048 76.3033 30.4513 77.1862 28.4981C78.0691 26.5672 78.8195 24.4032 79.4375 22.0061C79.1506 22.45 78.7974 22.9938 78.3781 23.6375C77.9587 24.2811 77.4952 24.9247 76.9876 25.5684C76.4799 26.1899 75.9502 26.7558 75.3984 27.2663C74.8687 27.7768 74.35 28.1208 73.8423 28.2984C73.4892 28.2762 73.114 28.1985 72.7167 28.0653C72.3415 27.9543 71.9773 27.7879 71.6241 27.5659C71.2931 27.344 70.9951 27.0776 70.7302 26.7669C70.4654 26.4562 70.2888 26.1011 70.2005 25.7016C70.2005 25.0579 70.2226 24.5474 70.2667 24.1701C70.3109 23.7706 70.3881 23.3378 70.4985 22.8717C70.6971 22.0283 70.984 21.074 71.3593 20.0086C71.7566 18.9433 72.209 17.9001 72.7167 16.8791C73.2464 15.836 73.8203 14.8705 74.4383 13.9827C75.0783 13.0727 75.7405 12.3625 76.4247 11.852C76.6013 11.852 76.822 11.8742 77.0869 11.9186C77.3517 11.9408 77.6276 11.9963 77.9146 12.0851C78.2015 12.1738 78.4774 12.2848 78.7423 12.418C79.0071 12.529 79.2389 12.6843 79.4375 12.8841C79.1947 13.106 78.665 13.8495 77.8484 15.1147C77.0317 16.3798 76.1268 18.1997 75.1335 20.5746C75.0232 20.8187 74.8907 21.1738 74.7362 21.6399C74.5817 22.106 74.4272 22.5943 74.2727 23.1048C74.1403 23.6153 74.0189 24.1146 73.9085 24.6029C73.7982 25.0912 73.743 25.4796 73.743 25.7682C73.743 25.9457 73.7651 26.0789 73.8092 26.1677C73.8754 26.2564 73.9306 26.323 73.9748 26.3674C74.3721 26.3008 74.9018 25.979 75.5639 25.4019C76.2261 24.8027 76.9765 23.8816 77.8152 22.6387C78.345 21.8397 78.8305 21.0518 79.272 20.2749C79.7134 19.4759 80.1438 18.6769 80.5632 17.8779C81.0046 17.0789 81.4571 16.2577 81.9206 15.4143C82.3841 14.5709 82.8807 13.7053 83.4104 12.8175C83.6974 12.8175 84.0064 12.8508 84.3374 12.9174C84.6685 12.984 84.9886 13.0727 85.2976 13.1837C85.6066 13.2725 85.8714 13.3835 86.0921 13.5166C86.3349 13.6276 86.5115 13.7497 86.6219 13.8828C85.9376 15.3477 85.2976 16.7793 84.7016 18.1775C84.1057 19.5758 83.576 21.0074 83.1125 22.4722Z" fill="#6E9277"/>
<path d="M97.1017 25.9013C97.4328 25.1689 97.8301 24.2256 98.2936 23.0715C98.7571 21.9174 99.2427 20.6744 99.7503 19.3428C100.258 17.9889 100.777 16.6128 101.306 15.2145C101.836 13.7941 102.333 12.4513 102.796 11.1862C103.26 9.92107 103.657 8.78914 103.988 7.79037C104.341 6.79161 104.595 6.02589 104.75 5.49321C103.359 6.07027 102.167 6.94697 101.174 8.12329C100.181 9.29962 99.4303 10.7756 98.9226 12.5512C98.415 12.3736 97.9515 12.0629 97.5321 11.619C97.1127 11.1529 96.8368 10.5758 96.7044 9.88778C96.9251 8.86682 97.3335 7.93464 97.9294 7.09123C98.5474 6.24783 99.3199 5.5265 100.247 4.92724C101.174 4.32798 102.244 3.87299 103.458 3.56226C104.672 3.22934 105.975 3.06288 107.365 3.06288C109.131 3.06288 110.753 3.32922 112.232 3.86189C113.711 4.37237 114.98 5.0937 116.039 6.02589C117.099 6.95807 117.926 8.0789 118.522 9.3884C119.118 10.6979 119.416 12.1516 119.416 13.7497C119.416 15.9248 119.019 18 118.224 19.9753C117.43 21.9506 116.348 23.6929 114.98 25.2022C113.633 26.7114 112.066 27.9099 110.279 28.7977C108.491 29.7077 106.615 30.1627 104.65 30.1627C102.84 30.1627 101.284 29.7965 99.9821 29.0641C98.7019 28.3538 97.7418 27.2996 97.1017 25.9013ZM108.789 4.72749C107.685 4.72749 106.637 4.88285 105.643 5.19358C106.615 5.5487 107.42 5.92601 108.06 6.32551C108.7 6.70283 109.142 7.00246 109.385 7.2244C109.208 7.46855 108.943 7.90134 108.59 8.5228C108.259 9.14425 107.862 9.89888 107.398 10.7867C106.957 11.6745 106.482 12.651 105.975 13.7164C105.467 14.7595 104.97 15.836 104.485 16.9457C103.227 19.7645 102.311 21.9839 101.737 23.6042C101.185 25.2244 100.909 26.3452 100.909 26.9667C101.218 27.0776 101.593 27.1553 102.035 27.1997C102.476 27.2441 102.951 27.2663 103.458 27.2663C105.246 27.2663 106.935 26.8557 108.524 26.0345C110.135 25.1911 111.537 24.0702 112.728 22.672C113.942 21.2737 114.892 19.6535 115.576 17.8113C116.282 15.947 116.635 13.9938 116.635 11.9519C116.635 9.66583 115.929 7.89025 114.516 6.62514C113.104 5.36004 111.195 4.72749 108.789 4.72749Z" fill="#6E9277"/>
<path d="M132.372 13.8495C132.284 15.2256 132.041 16.413 131.644 17.4118C131.246 18.3884 130.672 19.254 129.922 20.0086C129.194 20.741 128.3 21.4069 127.24 22.0061C126.181 22.6054 124.945 23.1825 123.532 23.7373C123.532 23.8705 123.521 24.0148 123.499 24.1701C123.499 24.3033 123.499 24.4476 123.499 24.6029C123.499 24.8915 123.521 25.1911 123.565 25.5018C123.609 25.8125 123.687 26.1011 123.797 26.3674C123.907 26.6337 124.062 26.8557 124.261 27.0333C124.459 27.1886 124.713 27.2663 125.022 27.2663C125.618 27.2663 126.203 27.1331 126.777 26.8668C127.351 26.6005 127.891 26.2786 128.399 25.9013C128.929 25.5018 129.414 25.0801 129.856 24.6362C130.319 24.1701 130.728 23.7484 131.081 23.3711C131.301 23.5709 131.489 23.7595 131.644 23.9371C130.65 25.2688 129.558 26.3785 128.366 27.2663C127.196 28.1319 126.081 28.6868 125.022 28.9309C123.499 28.7533 122.307 28.1985 121.446 27.2663C120.608 26.3119 120.188 25.1689 120.188 23.8372C120.188 22.9272 120.31 22.0061 120.552 21.074C120.817 20.1196 121.17 19.2096 121.612 18.344C122.075 17.4562 122.605 16.6239 123.201 15.8471C123.819 15.0703 124.47 14.3933 125.154 13.8163C125.861 13.2392 126.578 12.7842 127.306 12.4513C128.057 12.1184 128.796 11.9519 129.525 11.9519C130.54 12.0851 131.489 12.7176 132.372 13.8495ZM130.087 14.9482C129.492 15.037 128.874 15.2811 128.233 15.6806C127.593 16.0801 126.986 16.6128 126.413 17.2786C125.861 17.9445 125.353 18.7213 124.89 19.6091C124.426 20.4969 124.062 21.4513 123.797 22.4722C125.563 21.5844 127.031 20.4969 128.2 19.2096C129.37 17.9001 129.999 16.4796 130.087 14.9482Z" fill="#6E9277"/>
<path d="M133.11 26.9667C133.22 26.323 133.408 25.4796 133.673 24.4365C133.96 23.3711 134.291 22.2503 134.666 21.074C135.041 19.8754 135.439 18.6769 135.858 17.4784C136.277 16.2799 136.686 15.2034 137.083 14.2491C137.37 13.561 137.624 13.0283 137.844 12.651C138.065 12.2515 138.308 11.9186 138.573 11.6523C138.882 11.6967 139.202 11.7743 139.533 11.8853C139.864 11.9963 140.184 12.1295 140.493 12.2848C140.802 12.4402 141.078 12.6066 141.321 12.7842C141.564 12.9396 141.751 13.0949 141.884 13.2503C141.288 13.9605 140.758 14.7706 140.294 15.6806C139.853 16.5906 139.401 17.7558 138.937 19.1763C140.129 18.1109 141.177 17.09 142.082 16.1134C143.009 15.1368 143.87 14.0493 144.665 12.8508C144.797 12.7398 145.029 12.6843 145.36 12.6843C145.669 12.6843 145.967 12.7398 146.254 12.8508C146.541 12.9396 146.739 13.0727 146.85 13.2503C146.452 14.3156 146.254 15.3699 146.254 16.413C146.254 17.3896 146.397 18.122 146.684 18.6103C146.662 18.7435 146.508 18.9987 146.221 19.3761C145.956 19.7534 145.658 20.1085 145.327 20.4414C144.731 20.1307 144.201 19.709 143.738 19.1763C143.274 18.6214 142.932 18.0222 142.711 17.3785C141.674 18.1109 140.791 18.8323 140.063 19.5425C139.334 20.2306 138.705 21.0074 138.176 21.873C137.668 22.7164 137.226 23.6929 136.851 24.8027C136.498 25.9124 136.156 27.233 135.825 28.7644C135.626 28.7423 135.383 28.6646 135.097 28.5314C134.832 28.4204 134.556 28.2762 134.269 28.0986C134.004 27.921 133.761 27.7324 133.54 27.5326C133.32 27.3329 133.176 27.1442 133.11 26.9667Z" fill="#6E9277"/>
<path d="M166.394 17.4118C166.041 17.434 165.61 17.6671 165.103 18.1109C164.595 18.5326 164.043 19.0875 163.447 19.7756C162.873 20.4414 162.266 21.1849 161.626 22.0061C161.008 22.8273 160.401 23.6485 159.805 24.4698C159.232 25.2688 158.691 26.0234 158.183 26.7336C157.675 27.4439 157.245 28.0098 156.892 28.4315C156.406 28.2318 155.987 27.9432 155.634 27.5659C155.281 27.1664 155.027 26.6781 154.872 26.1011C154.983 25.413 155.137 24.7028 155.336 23.9704C155.535 23.2157 155.788 22.4389 156.097 21.6399C156.428 20.8409 156.826 20.0086 157.289 19.143C157.775 18.2552 158.36 17.323 159.044 16.3465C158.713 16.3687 158.26 16.6128 157.687 17.0789C157.113 17.5228 156.495 18.1109 155.833 18.8434C155.17 19.5536 154.486 20.3637 153.78 21.2737C153.074 22.1615 152.411 23.0382 151.793 23.9038C150.977 25.0579 150.292 26.0678 149.741 26.9334C149.211 27.799 148.825 28.3095 148.582 28.4648C148.008 28.0431 147.611 27.5881 147.39 27.0998C147.169 26.6116 147.004 26.0678 146.893 25.4685C146.916 24.9358 146.993 24.27 147.125 23.471C147.28 22.672 147.489 21.8508 147.754 21.0074C148.262 19.3871 148.913 17.778 149.708 16.18C150.524 14.582 151.308 13.1171 152.058 11.7854C152.676 11.9186 153.228 12.1295 153.714 12.418C154.221 12.7065 154.751 13.1282 155.303 13.6831C155.082 14.3711 154.74 15.1036 154.276 15.8804C153.813 16.635 153.327 17.434 152.82 18.2774C152.312 19.1208 151.849 19.9864 151.429 20.8742C151.01 21.762 150.734 22.6609 150.601 23.5709C151.219 22.6831 151.948 21.6621 152.787 20.508C153.647 19.3539 154.519 18.2663 155.402 17.2454C156.307 16.2244 157.201 15.3588 158.084 14.6486C158.967 13.9383 159.761 13.5832 160.468 13.5832C160.732 13.5832 161.019 13.6276 161.328 13.7164C161.637 13.8052 161.924 13.9161 162.189 14.0493C162.454 14.1825 162.675 14.3156 162.851 14.4488C163.028 14.5598 163.127 14.6486 163.149 14.7151C163.039 15.159 162.774 15.7694 162.355 16.5462C161.957 17.3008 161.527 18.0999 161.063 18.9433C160.6 19.7867 160.17 20.6079 159.772 21.4069C159.375 22.1837 159.143 22.8051 159.077 23.2712C160.159 21.7842 161.174 20.4414 162.123 19.2429C163.072 18.0222 163.966 16.979 164.805 16.1134C165.643 15.2478 166.416 14.582 167.122 14.1159C167.851 13.6498 168.535 13.4168 169.175 13.4168C169.616 13.4168 170.025 13.5388 170.4 13.783C170.797 14.0049 171.073 14.3378 171.228 14.7817C171.029 15.4476 170.698 16.2466 170.234 17.1788C169.793 18.1109 169.34 19.0986 168.877 20.1418C168.413 21.1627 167.994 22.1726 167.619 23.1714C167.266 24.1701 167.089 25.069 167.089 25.868C167.089 26.3341 167.155 26.6448 167.288 26.8002C167.42 26.9334 167.608 27 167.851 27C168.115 27 168.358 26.9556 168.579 26.8668C168.822 26.7558 168.998 26.7003 169.109 26.7003C169.241 26.7891 169.318 26.9001 169.34 27.0333C169.362 27.1664 169.374 27.2885 169.374 27.3995C168.932 27.7546 168.48 28.0431 168.016 28.2651C167.553 28.5092 167.034 28.6313 166.46 28.6313C165.93 28.6313 165.489 28.5425 165.136 28.3649C164.805 28.1874 164.529 27.9432 164.308 27.6325C164.087 27.3218 163.933 26.9667 163.845 26.5672C163.756 26.1677 163.712 25.7349 163.712 25.2688C163.712 24.5141 163.811 23.7706 164.01 23.0382C164.209 22.2836 164.44 21.5733 164.705 20.9075C164.992 20.2195 165.29 19.5869 165.599 19.0098C165.908 18.4106 166.173 17.8779 166.394 17.4118Z" fill="#6E9277"/>
<path d="M183.995 14.1825C184.216 14.1825 184.47 14.2269 184.757 14.3156C185.066 14.3822 185.342 14.4821 185.585 14.6153C185.827 14.7262 186.026 14.8483 186.181 14.9815C186.357 15.1147 186.445 15.2367 186.445 15.3477C186.004 16.2799 185.596 17.2232 185.22 18.1775C184.845 19.1097 184.525 20.0086 184.26 20.8742C183.995 21.7398 183.786 22.5499 183.631 23.3045C183.499 24.0592 183.433 24.7139 183.433 25.2688C183.433 25.8902 183.499 26.4118 183.631 26.8335C183.764 27.233 183.984 27.5215 184.293 27.6991C184.029 27.8767 183.686 28.0209 183.267 28.1319C182.848 28.2429 182.472 28.2984 182.141 28.2984C180.95 28.2984 180.354 27.4771 180.354 25.8347C180.354 24.5696 180.773 22.8384 181.612 20.6412C181.17 21.6621 180.663 22.6276 180.089 23.5376C179.515 24.4254 178.93 25.2133 178.334 25.9013C177.738 26.5894 177.131 27.1553 176.513 27.5992C175.917 28.0209 175.365 28.2762 174.858 28.3649C174.041 28.3206 173.379 27.9321 172.871 27.1997C172.364 26.4451 172.11 25.4907 172.11 24.3366C172.11 23.0937 172.375 21.7842 172.904 20.4081C173.434 19.032 174.107 17.7558 174.924 16.5795C175.763 15.4032 176.668 14.4266 177.639 13.6498C178.61 12.8508 179.548 12.4291 180.453 12.3847C180.674 12.4513 180.916 12.5844 181.181 12.7842C181.468 12.984 181.733 13.217 181.976 13.4833C182.241 13.7497 182.461 14.0271 182.638 14.3156C182.815 14.582 182.914 14.815 182.936 15.0148C182.053 15.1479 181.137 15.5807 180.188 16.3132C179.261 17.0456 178.411 17.9334 177.639 18.9765C176.888 19.9975 176.27 21.0961 175.785 22.2725C175.299 23.4488 175.056 24.5474 175.056 25.5684C175.056 25.9901 175.211 26.2564 175.52 26.3674C176.16 26.2342 176.899 25.6905 177.738 24.7361C178.577 23.7595 179.592 22.2614 180.784 20.2416C181.005 19.8421 181.247 19.3982 181.512 18.91C181.799 18.4217 182.086 17.9112 182.373 17.3785C182.66 16.8458 182.936 16.3132 183.201 15.7805C183.488 15.2256 183.753 14.693 183.995 14.1825Z" fill="#6E9277"/>
<path d="M189.529 14.8816C189.418 14.7484 189.319 14.471 189.231 14.0493C189.142 13.6054 189.098 13.2281 189.098 12.9174C189.672 12.9618 190.224 13.0061 190.753 13.0505C191.283 13.0727 191.769 13.0949 192.21 13.1171C192.541 12.4513 192.894 11.7965 193.27 11.1529C193.667 10.487 194.042 9.88778 194.395 9.3551C194.771 8.80023 195.113 8.33414 195.422 7.95683C195.753 7.57952 196.007 7.33538 196.183 7.2244C196.404 7.2244 196.68 7.26879 197.011 7.35757C197.364 7.42416 197.717 7.52403 198.07 7.6572C198.423 7.76818 198.743 7.89025 199.03 8.02342C199.317 8.15659 199.516 8.28975 199.626 8.42292C198.964 9.26632 198.39 10.0542 197.905 10.7867C197.441 11.4969 196.934 12.3181 196.382 13.2503C196.823 13.2503 197.265 13.2392 197.706 13.217C198.17 13.1948 198.633 13.1615 199.097 13.1171C199.207 13.2281 199.295 13.3724 199.361 13.5499C199.428 13.7053 199.461 13.8717 199.461 14.0493C198.379 14.4488 197.066 14.6708 195.521 14.7151C194.969 15.7805 194.473 16.8458 194.031 17.9112C193.612 18.9544 193.248 19.9642 192.939 20.9408C192.652 21.9174 192.42 22.8384 192.243 23.704C192.089 24.5696 192.012 25.3464 192.012 26.0345C192.012 27.0111 192.376 27.5548 193.104 27.6658C193.766 27.577 194.395 27.4106 194.991 27.1664C195.587 26.9223 196.117 26.6116 196.58 26.2342C196.713 26.434 196.79 26.6005 196.812 26.7336C196.68 26.9334 196.448 27.1664 196.117 27.4328C195.808 27.6991 195.466 27.9543 195.091 28.1985C194.715 28.4648 194.351 28.6868 193.998 28.8643C193.645 29.0419 193.38 29.1418 193.203 29.164C192.652 29.1418 192.1 29.0197 191.548 28.7977C190.996 28.5758 190.489 28.2984 190.025 27.9654C189.584 27.6325 189.219 27.2663 188.933 26.8668C188.646 26.4451 188.502 26.0345 188.502 25.635C188.502 25.1023 188.568 24.4365 188.701 23.6375C188.855 22.8162 189.065 21.9285 189.33 20.9741C189.595 20.0197 189.904 19.0209 190.257 17.9778C190.61 16.9346 190.996 15.9026 191.416 14.8816H189.529Z" fill="#6E9277"/>
<path d="M203.121 28.7977C201.863 28.6646 200.859 28.1097 200.108 27.1331C199.358 26.1566 198.983 24.9137 198.983 23.4044C198.983 22.5166 199.115 21.5955 199.38 20.6412C199.645 19.6868 200.02 18.7657 200.506 17.8779C200.991 16.9679 201.565 16.1134 202.227 15.3144C202.889 14.5154 203.607 13.8274 204.379 13.2503C205.593 12.3403 206.73 11.8853 207.789 11.8853C208.496 12.2626 209.191 13.0505 209.875 14.2491C209.986 14.2491 210.085 14.2491 210.173 14.2491C210.261 14.2269 210.361 14.2158 210.471 14.2158C211.641 14.2158 212.226 15.2589 212.226 17.3452C212.226 18.7435 211.994 20.0752 211.531 21.3403C211.089 22.5832 210.46 23.7151 209.643 24.7361C208.849 25.7571 207.889 26.6227 206.763 27.3329C205.659 28.0209 204.446 28.5092 203.121 28.7977ZM204.81 18.3107C204.435 18.8212 204.081 19.3761 203.75 19.9753C203.419 20.5746 203.132 21.1849 202.889 21.8064C202.647 22.4056 202.459 22.9938 202.327 23.5709C202.194 24.1257 202.128 24.6251 202.128 25.069C202.128 25.6017 202.216 26.1122 202.393 26.6005C202.569 27.0887 202.768 27.3662 202.989 27.4328C203.982 27.2108 204.887 26.8002 205.704 26.2009C206.542 25.5795 207.26 24.8138 207.856 23.9038C208.474 22.9938 208.948 21.9617 209.279 20.8076C209.632 19.6535 209.809 18.4217 209.809 17.1122C209.809 16.5351 209.776 16.0801 209.71 15.7472C209.643 15.4143 209.533 15.1257 209.379 14.8816C208.407 15.1701 207.536 15.6362 206.763 16.2799C206.013 16.9235 205.362 17.6005 204.81 18.3107Z" fill="#6E9277"/>
<path d="M213.795 25.5018C213.795 24.5252 214.027 23.1603 214.491 21.4069C214.954 19.6313 215.605 17.5672 216.444 15.2145C217.812 11.4636 219.093 8.34524 220.284 5.85942C221.498 3.35141 222.679 1.39827 223.827 0C224.092 0.044389 224.412 0.155363 224.787 0.332922C225.184 0.51048 225.571 0.710233 225.946 0.932181C226.321 1.13193 226.652 1.34278 226.939 1.56473C227.248 1.78668 227.447 1.96424 227.535 2.09741C225.813 4.13933 224.301 6.33661 222.999 8.68926C221.697 11.0419 220.505 13.7386 219.424 16.7793C218.497 19.3982 217.79 21.762 217.305 23.8705C216.819 25.9568 216.576 27.6991 216.576 29.0974C216.576 29.4747 216.576 29.7077 216.576 29.7965C216.576 29.8853 216.587 29.9741 216.609 30.0628C216.3 30.0185 216.036 29.9408 215.815 29.8298C215.594 29.7188 215.451 29.5857 215.385 29.4303C215.34 29.3193 215.219 29.1529 215.02 28.9309C214.822 28.7312 214.645 28.5758 214.491 28.4648C214.292 28.3316 214.126 27.9876 213.994 27.4328C213.862 26.8557 213.795 26.212 213.795 25.5018Z" fill="#6E9277"/>
<path d="M225.43 28.7977C224.172 28.6646 223.168 28.1097 222.417 27.1331C221.667 26.1566 221.292 24.9137 221.292 23.4044C221.292 22.5166 221.424 21.5955 221.689 20.6412C221.954 19.6868 222.329 18.7657 222.815 17.8779C223.3 16.9679 223.874 16.1134 224.536 15.3144C225.198 14.5154 225.916 13.8274 226.688 13.2503C227.902 12.3403 229.039 11.8853 230.098 11.8853C230.805 12.2626 231.5 13.0505 232.184 14.2491C232.294 14.2491 232.394 14.2491 232.482 14.2491C232.57 14.2269 232.67 14.2158 232.78 14.2158C233.95 14.2158 234.535 15.2589 234.535 17.3452C234.535 18.7435 234.303 20.0752 233.839 21.3403C233.398 22.5832 232.769 23.7151 231.952 24.7361C231.158 25.7571 230.198 26.6227 229.072 27.3329C227.968 28.0209 226.754 28.5092 225.43 28.7977ZM227.119 18.3107C226.743 18.8212 226.39 19.3761 226.059 19.9753C225.728 20.5746 225.441 21.1849 225.198 21.8064C224.956 22.4056 224.768 22.9938 224.635 23.5709C224.503 24.1257 224.437 24.6251 224.437 25.069C224.437 25.6017 224.525 26.1122 224.702 26.6005C224.878 27.0887 225.077 27.3662 225.298 27.4328C226.291 27.2108 227.196 26.8002 228.012 26.2009C228.851 25.5795 229.569 24.8138 230.164 23.9038C230.782 22.9938 231.257 21.9617 231.588 20.8076C231.941 19.6535 232.118 18.4217 232.118 17.1122C232.118 16.5351 232.085 16.0801 232.018 15.7472C231.952 15.4143 231.842 15.1257 231.687 14.8816C230.716 15.1701 229.844 15.6362 229.072 16.2799C228.321 16.9235 227.67 17.6005 227.119 18.3107Z" fill="#6E9277"/>
<path d="M229.45 37.5536C229.45 37.4204 229.494 37.2983 229.582 37.1874C229.67 37.0764 229.77 36.9654 229.88 36.8545C230.145 37.0986 230.377 37.2872 230.575 37.4204C230.752 37.5536 230.928 37.6646 231.105 37.7533C231.259 37.8421 231.425 37.8976 231.602 37.9198C231.778 37.942 231.988 37.9531 232.231 37.9531C233.378 37.9531 234.471 37.6424 235.508 37.0209C236.546 36.4216 237.517 35.545 238.422 34.3908C239.349 33.2367 240.187 31.8273 240.938 30.1627C241.688 28.4981 242.35 26.6116 242.924 24.503C242.659 24.7694 242.328 25.069 241.931 25.4019C241.556 25.7127 241.159 26.0123 240.739 26.3008C240.32 26.5894 239.9 26.8557 239.481 27.0998C239.084 27.344 238.742 27.5215 238.455 27.6325C238.08 27.5659 237.726 27.4106 237.395 27.1664C237.086 26.9001 236.81 26.5783 236.568 26.2009C236.325 25.8236 236.137 25.4019 236.005 24.9358C235.872 24.4476 235.806 23.9371 235.806 23.4044C235.806 22.5388 235.961 21.651 236.27 20.741C236.601 19.831 237.031 18.9433 237.561 18.0777C238.091 17.1899 238.709 16.3576 239.415 15.5807C240.143 14.8039 240.905 14.127 241.699 13.5499C242.516 12.9729 243.333 12.5179 244.149 12.1849C244.988 11.8298 245.805 11.6523 246.599 11.6523C247.372 11.6523 247.946 11.8187 248.321 12.1516C248.718 12.4624 249.005 13.0061 249.182 13.783C248.939 13.6498 248.63 13.5832 248.255 13.5832C247.725 13.5832 247.107 13.7941 246.401 14.2158C245.716 14.6375 245.01 15.1923 244.282 15.8804C243.575 16.5462 242.869 17.323 242.163 18.2108C241.457 19.0764 240.828 19.9642 240.276 20.8742C239.746 21.7842 239.305 22.672 238.951 23.5376C238.62 24.4032 238.455 25.18 238.455 25.868C238.455 26.0234 238.466 26.1233 238.488 26.1677C238.51 26.1899 238.543 26.2009 238.587 26.2009C238.786 26.2009 239.051 26.09 239.382 25.868C239.735 25.6461 240.121 25.3686 240.541 25.0357C240.982 24.6806 241.434 24.2811 241.898 23.8372C242.361 23.3711 242.803 22.905 243.222 22.4389C244.171 21.3736 245.032 20.1862 245.805 18.8767C246.599 17.545 247.228 16.2577 247.692 15.0148C248.288 15.0592 248.817 15.159 249.281 15.3144C249.744 15.4698 250.065 15.6362 250.241 15.8138C249.491 17.545 248.884 18.9987 248.42 20.1751C247.979 21.3514 247.592 22.3945 247.261 23.3045C246.665 24.9026 246.103 26.3563 245.573 27.6658C245.065 28.9975 244.536 30.2182 243.984 31.3279C243.454 32.4599 242.869 33.503 242.229 34.4574C241.611 35.434 240.905 36.3662 240.11 37.254C239.735 37.6757 239.305 38.0419 238.819 38.3526C238.355 38.6855 237.87 38.963 237.362 39.1849C236.877 39.4068 236.391 39.5733 235.906 39.6843C235.442 39.7953 235.012 39.8507 234.614 39.8507C234.085 39.8507 233.544 39.7842 232.992 39.651C232.44 39.54 231.933 39.3736 231.469 39.1516C230.984 38.9519 230.564 38.7077 230.211 38.4192C229.858 38.1528 229.604 37.8643 229.45 37.5536Z" fill="#6E9277"/>
<path d="M263.491 22.4722C262.983 24.0924 262.475 25.5684 261.968 26.9001C261.46 28.2318 260.919 29.4525 260.345 30.5622C259.772 31.6942 259.154 32.7262 258.491 33.6584C257.829 34.6128 257.101 35.5117 256.306 36.3551C255.291 37.4204 254.243 38.2305 253.161 38.7854C252.08 39.3625 250.998 39.651 249.916 39.651C249.365 39.651 248.813 39.5844 248.261 39.4512C247.731 39.3403 247.235 39.1738 246.771 38.9519C246.286 38.7521 245.866 38.508 245.513 38.2194C245.138 37.9531 244.873 37.6646 244.719 37.3538C244.719 37.0875 244.873 36.8545 245.182 36.6547C245.447 36.8988 245.668 37.0875 245.844 37.2207C246.021 37.3538 246.197 37.4648 246.374 37.5536C246.528 37.6424 246.705 37.6978 246.904 37.72C247.08 37.7422 247.29 37.7533 247.533 37.7533C248.791 37.7533 250.016 37.376 251.208 36.6214C252.422 35.889 253.558 34.8347 254.618 33.4586C255.699 32.1048 256.681 30.4513 257.564 28.4981C258.447 26.5672 259.198 24.4032 259.816 22.0061C259.529 22.45 259.176 22.9938 258.756 23.6375C258.337 24.2811 257.873 24.9247 257.366 25.5684C256.858 26.1899 256.328 26.7558 255.777 27.2663C255.247 27.7768 254.728 28.1208 254.22 28.2984C253.867 28.2762 253.492 28.1985 253.095 28.0653C252.72 27.9543 252.355 27.7879 252.002 27.5659C251.671 27.344 251.373 27.0776 251.108 26.7669C250.844 26.4562 250.667 26.1011 250.579 25.7016C250.579 25.0579 250.601 24.5474 250.645 24.1701C250.689 23.7706 250.766 23.3378 250.877 22.8717C251.075 22.0283 251.362 21.074 251.737 20.0086C252.135 18.9433 252.587 17.9001 253.095 16.8791C253.625 15.836 254.198 14.8705 254.816 13.9827C255.456 13.0727 256.119 12.3625 256.803 11.852C256.979 11.852 257.2 11.8742 257.465 11.9186C257.73 11.9408 258.006 11.9963 258.293 12.0851C258.58 12.1738 258.856 12.2848 259.12 12.418C259.385 12.529 259.617 12.6843 259.816 12.8841C259.573 13.106 259.043 13.8495 258.227 15.1147C257.41 16.3798 256.505 18.1997 255.512 20.5746C255.401 20.8187 255.269 21.1738 255.114 21.6399C254.96 22.106 254.805 22.5943 254.651 23.1048C254.518 23.6153 254.397 24.1146 254.287 24.6029C254.176 25.0912 254.121 25.4796 254.121 25.7682C254.121 25.9457 254.143 26.0789 254.187 26.1677C254.254 26.2564 254.309 26.323 254.353 26.3674C254.75 26.3008 255.28 25.979 255.942 25.4019C256.604 24.8027 257.355 23.8816 258.193 22.6387C258.723 21.8397 259.209 21.0518 259.65 20.2749C260.092 19.4759 260.522 18.6769 260.941 17.8779C261.383 17.0789 261.835 16.2577 262.299 15.4143C262.762 14.5709 263.259 13.7053 263.789 12.8175C264.076 12.8175 264.384 12.8508 264.716 12.9174C265.047 12.984 265.367 13.0727 265.676 13.1837C265.985 13.2725 266.25 13.3835 266.47 13.5166C266.713 13.6276 266.89 13.7497 267 13.8828C266.316 15.3477 265.676 16.7793 265.08 18.1775C264.484 19.5758 263.954 21.0074 263.491 22.4722Z" fill="#6E9277"/>
</svg>
